<?xml version="1.0" standalone="no"?>
<!DOCTYPE svg PUBLIC "-//W3C//DTD SVG 20010904//EN"
 "http://www.w3.org/TR/2001/REC-SVG-20010904/DTD/svg10.dtd">
<svg version="1.0" xmlns="http://www.w3.org/2000/svg"
 width="260.000000pt" height="260.000000pt" viewBox="0 0 260.000000 260.000000"
 preserveAspectRatio="xMidYMid meet">
<metadata>
Created by potrace 1.11, written by Peter Selinger 2001-2013
</metadata>
<g transform="translate(0.000000,260.000000) scale(0.100000,-0.100000)"
fill="#000000" stroke="none">
<path d="M0 1300 l0 -1300 1300 0 1300 0 0 1300 0 1300 -1300 0 -1300 0 0
-1300z m2560 1212 c0 -4 -38 -173 -85 -376 -47 -202 -85 -369 -85 -372 0 -2
-272 -4 -604 -4 l-604 0 -5 -22 c-35 -146 -42 -434 -14 -584 33 -181 102 -354
198 -495 159 -235 474 -451 716 -489 37 -6 69 -13 71 -15 2 -1 0 -19 -3 -38
-5 -26 -13 -37 -31 -41 -32 -8 -325 11 -454 30 -482 70 -888 249 -1162 512
-316 304 -484 694 -453 1056 l7 86 564 0 563 0 10 38 c5 20 42 186 81 367 39
182 73 336 75 343 3 9 134 12 610 12 333 0 605 -4 605 -8z"/>
</g>
</svg>
