<?xml version="1.0" encoding="utf-8"?>
<!-- Generator: Adobe Illustrator 16.0.3, SVG Export Plug-In . SVG Version: 6.00 Build 0)  -->
<!DOCTYPE svg PUBLIC "-//W3C//DTD SVG 1.1//EN" "http://www.w3.org/Graphics/SVG/1.1/DTD/svg11.dtd">
<svg version="1.1" id="Capa_1" xmlns="http://www.w3.org/2000/svg" xmlns:xlink="http://www.w3.org/1999/xlink" x="0px" y="0px"
	 width="64px" height="64px" viewBox="-16 -16 64 64" enable-background="new -16 -16 64 64" xml:space="preserve">
<g>
	<g>
		<path fill="#5AC8FB" d="M46.872-1.436c0-0.071,0.049-0.139,0.045-0.208L28.124,16.464l18.77,17.53
			c0.012-0.126-0.021-0.251-0.021-0.38V-1.436z"/>
		<path fill="#5AC8FB" d="M25.255,19.25l-7.672,7.383c-0.389,0.371-0.89,0.56-1.392,0.56c-0.491,0-0.983-0.178-1.368-0.537
			l-7.651-7.131l-18.894,18.211c0.459,0.166,0.953,0.294,1.469,0.294h52.888c0.767,0,1.484-0.233,2.111-0.583L25.255,19.25z"/>
		<path fill="#5AC8FB" d="M16.169,22.423L44.85-5.206c-0.648-0.386-1.404-0.646-2.214-0.646h-52.888
			c-1.055,0-2.021,0.41-2.775,1.035L16.169,22.423z"/>
		<path fill="#5AC8FB" d="M-14.667-0.763v34.375c0,0.395,0.091,0.776,0.189,1.14L4.181,16.784L-14.667-0.763z"/>
	</g>
	<g>
		<path d="M20.067,12.582c-1.385,0.623-2.585,0.831-4.225,0.831c-3.831,0-7.201-2.746-7.201-7.271c0-4.708,3.416-8.794,8.633-8.794
			c4.062,0,6.969,2.793,6.969,6.671c0,3.37-1.893,5.493-4.385,5.493c-1.085,0-1.87-0.554-1.985-1.777h-0.047
			c-0.714,1.177-1.753,1.777-2.977,1.777c-1.501,0-2.584-1.108-2.584-3c0-2.815,2.077-5.377,5.4-5.377
			c1.017,0,2.171,0.253,2.748,0.577l-0.693,4.27c-0.229,1.362-0.069,1.985,0.576,2.008c0.992,0.024,2.241-1.246,2.241-3.9
			c0-3-1.94-5.332-5.519-5.332c-3.531,0-6.624,2.77-6.624,7.178c0,3.854,2.47,6.048,5.91,6.048c1.177,0,2.423-0.254,3.346-0.738
			L20.067,12.582z M18.014,3.049c-0.187-0.046-0.417-0.092-0.716-0.092c-1.524,0-2.725,1.5-2.725,3.278
			c0,0.877,0.393,1.431,1.155,1.431c0.854,0,1.754-1.084,1.962-2.423L18.014,3.049z"/>
	</g>
</g>
</svg>
