<?xml version="1.0" encoding="utf-8"?>
<!-- Generator: Adobe Illustrator 16.0.3, SVG Export Plug-In . SVG Version: 6.00 Build 0)  -->
<!DOCTYPE svg PUBLIC "-//W3C//DTD SVG 1.1//EN" "http://www.w3.org/Graphics/SVG/1.1/DTD/svg11.dtd">
<svg version="1.1" id="Ebene_1" xmlns="http://www.w3.org/2000/svg" xmlns:xlink="http://www.w3.org/1999/xlink" x="0px" y="0px"
	 width="64px" height="64px" viewBox="-16 -16 64 64" enable-background="new -16 -16 64 64" xml:space="preserve">
<title>Facebook icon</title>
<path fill="#5AC8FB" d="M46.623,16.168c0-16.869-13.678-30.543-30.543-30.543c-16.868,0-30.543,13.674-30.543,30.543
	c0,15.245,11.169,27.881,25.771,30.171V24.995H3.553v-8.827h7.755V9.438c0-7.655,4.559-11.883,11.536-11.883
	c3.342,0,6.837,0.597,6.837,0.597v7.516h-3.853c-3.792,0-4.977,2.354-4.977,4.77v5.73h8.471l-1.354,8.827h-7.117v21.344
	C35.452,44.049,46.623,31.413,46.623,16.168z"/>
</svg>
