<?xml version="1.0" encoding="utf-8"?>
<!-- Generator: Adobe Illustrator 16.0.3, SVG Export Plug-In . SVG Version: 6.00 Build 0)  -->
<!DOCTYPE svg PUBLIC "-//W3C//DTD SVG 1.1//EN" "http://www.w3.org/Graphics/SVG/1.1/DTD/svg11.dtd">
<svg version="1.1" id="Ebene_1" xmlns="http://www.w3.org/2000/svg" xmlns:xlink="http://www.w3.org/1999/xlink" x="0px" y="0px"
	 width="64px" height="64px" viewBox="-16 -16 64 64" enable-background="new -16 -16 64 64" xml:space="preserve">
<title>Instagram icon</title>
<path fill="#5AC8FB" d="M16.167-13.833c-8.15,0-9.167,0.038-12.368,0.18c-3.194,0.15-5.369,0.652-7.282,1.395
	c-1.973,0.765-3.647,1.792-5.314,3.46c-1.668,1.667-2.698,3.34-3.46,5.314c-0.743,1.913-1.247,4.088-1.395,7.282
	c-0.15,3.201-0.18,4.218-0.18,12.368c0,8.15,0.038,9.166,0.18,12.367c0.149,3.193,0.652,5.37,1.395,7.284
	c0.765,1.97,1.792,3.647,3.46,5.313c1.667,1.668,3.34,2.699,5.314,3.461c1.915,0.74,4.09,1.248,7.282,1.396
	C7,46.138,8.017,46.167,16.167,46.167c8.15,0,9.166-0.037,12.367-0.179c3.193-0.151,5.37-0.656,7.284-1.396
	c1.97-0.765,3.647-1.793,5.313-3.461c1.668-1.665,2.699-3.335,3.461-5.313c0.74-1.914,1.248-4.091,1.396-7.284
	c0.149-3.201,0.179-4.217,0.179-12.367c0-8.15-0.037-9.167-0.179-12.368c-0.151-3.192-0.656-5.372-1.396-7.282
	c-0.765-1.973-1.793-3.647-3.461-5.314c-1.665-1.668-3.335-2.698-5.313-3.46c-1.914-0.743-4.091-1.247-7.284-1.395
	C25.333-13.803,24.317-13.833,16.167-13.833z M16.167-8.433c8.008,0,8.961,0.041,12.125,0.177c2.927,0.137,4.512,0.623,5.566,1.038
	c1.406,0.543,2.4,1.192,3.457,2.24c1.048,1.05,1.696,2.047,2.238,3.452c0.409,1.055,0.9,2.643,1.031,5.568
	c0.144,3.165,0.177,4.115,0.177,12.125s-0.037,8.961-0.186,12.125c-0.151,2.927-0.639,4.512-1.052,5.566
	c-0.562,1.406-1.198,2.4-2.247,3.457c-1.048,1.048-2.06,1.696-3.452,2.238c-1.047,0.409-2.662,0.9-5.586,1.031
	c-3.184,0.144-4.122,0.177-12.147,0.177c-8.028,0-8.965-0.037-12.147-0.186c-2.928-0.151-4.541-0.639-5.59-1.052
	c-1.423-0.562-2.4-1.198-3.448-2.247c-1.052-1.048-1.725-2.06-2.25-3.452c-0.413-1.047-0.896-2.662-1.049-5.586
	c-0.113-3.149-0.153-4.122-0.153-12.11c0-7.99,0.04-8.965,0.153-12.153c0.153-2.925,0.637-4.535,1.049-5.584
	c0.525-1.426,1.198-2.4,2.25-3.453c1.048-1.047,2.025-1.723,3.448-2.245c1.049-0.416,2.627-0.903,5.552-1.053
	c3.188-0.112,4.125-0.15,12.148-0.15L16.167-8.433z M16.167,0.762c-8.512,0-15.405,6.899-15.405,15.405
	c0,8.513,6.899,15.404,15.405,15.404c8.513,0,15.404-6.899,15.404-15.404C31.571,7.655,24.672,0.762,16.167,0.762z M16.167,26.169
	c-5.525,0-10-4.476-10-10.002c0-5.525,4.475-10,10-10c5.526,0,10.002,4.475,10.002,10C26.169,21.693,21.693,26.169,16.167,26.169z
	 M35.781,0.154c0,1.988-1.615,3.6-3.601,3.6c-1.986,0-3.6-1.615-3.6-3.6c0-1.985,1.616-3.597,3.6-3.597
	C34.164-3.445,35.781-1.831,35.781,0.154z"/>
</svg>
